<?xml version="1.0" encoding="UTF-8"?>
<svg id="Layer_1" data-name="Layer 1" xmlns="http://www.w3.org/2000/svg" viewBox="0 0 6073.16 2697.7">
  <defs>
    <style>
      .cls-1 {
        fill: #121212;
        stroke-width: 0px;
      }
    </style>
  </defs>
  <path class="cls-1" d="M2563.86,614.2c0-2.66-.17-5.24-.2-7.88v-5.33c0-110.72-21.74-212.25-64.62-301.97-43.77-91.18-107.81-164.4-190.23-217.65C2225.8,27.68,2127.05.7,2015.01.7c-84.46,0-161.48,16.04-229.17,48.14-67.25,31.51-125.6,75.85-173.3,131.15-47.12,54.7-83.74,118.89-108.83,190.95-24.8,71.48-37.35,148.79-37.35,230.05v392h0v436.41l451.14-170.77v-644.44c0-42.42,8.47-77.38,25.39-104.32,8.31-13.47,23.2-28.66,65.22-28.66,34.58,0,47.57,14.48,55.74,28.66,16.34,28.37,24.51,63.63,24.51,104.32v442.71s-.08,0-.11-.01v852.79s.08-.01.11-.03v174.39c0,40.98-8.46,74.52-26.26,102.89-13.13,21.21-29.18,30.38-53.99,30.38-43.19,0-57.92-15.19-65.8-28.09-16.48-27.23-24.8-62.48-24.8-105.19v-297.39l-451.14,166.49v130.9c0,35.81,2.62,70.53,7.34,104.29-.71-.53-1.47-.96-2.17-1.51,8.76,76.57,28.83,147.92,60.32,212.7,44.35,91.03,108.24,164.11,189.94,217.5,82.42,53.68,181.03,80.67,293.21,80.67s215.61-26.7,298.03-79.8c82.13-52.66,145.44-125.89,187.89-217.36,41.58-89.42,62.73-191.4,62.73-303.29v-5.02c.03-2.75.2-5.43.2-8.19V614.2Z"/>
  <path class="cls-1" d="M464.6,26.7L.05,2669.09h463.07l69.1-392.63,385.94-143.03,94.27,535.66h395.31L1008.66,26.7H464.6ZM736.63,566.3l70,1088.24-174.2,64.59,104.2-1152.84Z"/>
  <path class="cls-1" d="M5608.61,26.7l464.55,2642.4h-463.07l-69.1-392.63-385.94-143.03-94.27,535.66h-395.31L5064.54,26.7h544.07ZM5336.58,566.3l-70,1088.24,174.2,64.59-104.2-1152.84Z"/>
  <rect class="cls-1" x="2751.07" y="28" width="475.39" height="2642.4"/>
  <path class="cls-1" d="M4481.15,1203.25c53.23-110.69,80.22-242.85,80.22-392.79,0-252.15-57.62-447.34-171.25-580.15-115.68-135.11-295.02-203.62-533.02-203.62h-424.35v2642.4h475.42v-1152.74l183.42,1152.74h478.2l-260.25-1237.41c66.67-53.3,124.3-129.97,171.62-228.43ZM4082.5,824.29c0,71.81-7.96,134.21-23.7,185.49v.04c-14.18,46.36-36.55,80.6-68.41,104.7-21.14,16.01-48.69,26.65-82.24,31.81V501.88c58.31,8.05,98.51,31.14,122.21,69.94,34.6,56.65,52.14,141.59,52.14,252.46Z"/>
</svg>