<?xml version="1.0" encoding="UTF-8"?>
<svg id="Layer_1" data-name="Layer 1" xmlns="http://www.w3.org/2000/svg" xmlns:xlink="http://www.w3.org/1999/xlink" viewBox="0 0 100 100">
  <defs>
    <style>
      .cls-1 {
        fill: url(#radial-gradient);
        stroke-width: 0px;
      }
    </style>
    <radialGradient id="radial-gradient" cx="50" cy="50" fx="50" fy="50" r="41.84" gradientUnits="userSpaceOnUse">
      <stop offset="0" stop-color="#1e50da"/>
      <stop offset=".28" stop-color="#1f55de"/>
      <stop offset=".64" stop-color="#2565ea"/>
      <stop offset="1" stop-color="#2d7dfc"/>
    </radialGradient>
  </defs>
  <path class="cls-1" d="M37.12,93.32c-5.38,0-10.13-.89-14.28-2.67s-7.37-4.48-9.68-8.1c-2.31-3.62-3.47-8.21-3.47-13.79,0-4.62.78-8.56,2.34-11.83,1.56-3.26,3.74-5.94,6.55-8.02,2.81-2.08,6.09-3.69,9.83-4.82,3.74-1.13,7.8-1.85,12.17-2.15,4.72-.35,8.5-.78,11.34-1.28,2.84-.5,4.9-1.24,6.18-2.22,1.28-.98,1.92-2.27,1.92-3.88v-.3c0-1.46-.39-2.69-1.17-3.69-.78-1-1.87-1.77-3.28-2.3-1.41-.53-3.09-.79-5.05-.79s-3.64.28-5.2.83c-1.56.55-2.85,1.38-3.88,2.49-.72.77-1.27,1.68-1.66,2.74-.31.85-1.12,1.4-2.02,1.31l-23.51-2.34c-1.17-.12-1.98-1.25-1.69-2.4.98-3.87,2.79-7.44,5.41-10.7,3.11-3.87,7.42-6.96,12.92-9.27,5.5-2.31,12.19-3.47,20.08-3.47,5.98,0,11.39.7,16.24,2.11,4.85,1.41,8.99,3.37,12.43,5.88,3.44,2.51,6.08,5.44,7.91,8.78,1.83,3.34,2.75,6.94,2.75,10.81v55.77c0,1.07-.87,1.93-1.93,1.93h-24.46c-1.07,0-1.93-.87-1.93-1.93v-9.97h-.6c-1.71,3.16-3.75,5.71-6.14,7.65-2.39,1.93-5.08,3.35-8.1,4.26-3.01.9-6.35,1.36-10.02,1.36ZM46.91,74.18c2.31,0,4.48-.48,6.52-1.43,2.03-.95,3.69-2.32,4.97-4.11,1.28-1.78,1.92-3.96,1.92-6.52v-4.18c0-1.33-1.3-2.27-2.56-1.85h0c-.9.3-1.87.58-2.9.83-1.03.25-2.08.48-3.16.68-1.08.2-2.22.4-3.43.6-2.36.35-4.28.94-5.76,1.77-1.48.83-2.57,1.83-3.28,3.01-.7,1.18-1.05,2.5-1.05,3.96,0,1.56.38,2.88,1.13,3.96.75,1.08,1.78,1.9,3.09,2.45,1.31.55,2.81.83,4.52.83Z"/>
</svg>